<?xml version="1.0" encoding="utf-8"?>
<!-- Generator: Adobe Illustrator 18.0.0, SVG Export Plug-In . SVG Version: 6.00 Build 0)  -->
<!DOCTYPE svg PUBLIC "-//W3C//DTD SVG 1.1//EN" "http://www.w3.org/Graphics/SVG/1.1/DTD/svg11.dtd">
<svg version="1.1" id="Ebene_1" xmlns="http://www.w3.org/2000/svg" xmlns:xlink="http://www.w3.org/1999/xlink" x="0px" y="0px"
	 viewBox="0 0 342.6 109.2" enable-background="new 0 0 342.6 109.2" xml:space="preserve">
<g>
	<path fill="#71B73A" d="M54.6,100.9l14.3,8.3l25.5-14.7l14.7-25.5l-8.3-14.3l8.3-14.3L94.5,14.7L68.9,0L54.6,8.3L40.3,0L14.7,14.7
		L0,40.3l8.3,14.3L0,68.9l14.7,25.5l25.5,14.7L54.6,100.9z M87,87l-18,10.4l-14.3-8.3l-14.3,8.3L22.2,87l-10.4-18l8.3-14.3
		l-8.3-14.3l10.4-18l18-10.4l14.3,8.3l14.3-8.3l18,10.4l10.4,18l-8.3,14.3l8.3,14.3L87,87z"/>
	<polygon fill="#71B73A" points="63.5,63.5 54.6,68.7 45.7,63.5 40.5,54.6 45.7,45.7 54.6,40.5 63.5,45.7 68.7,54.6 	"/>
	<path fill="#010202" d="M54.6,89.1l14.3,8.3L87,87l10.4-18l-8.3-14.3l8.3-14.3L87,22.2l-18-10.4l-14.3,8.3l-14.3-8.3l-18,10.4
		l-10.4,18l8.3,14.3l-8.3,14.3l10.4,18l18,10.4L54.6,89.1z M79.5,79.5l-10.6,6.1l-14.3-8.3l-14.3,8.3l-10.6-6.1l-6.1-10.6l8.3-14.3
		l-8.3-14.3l6.1-10.6l10.6-6.1l14.3,8.3l14.3-8.3l10.6,6.1l6.1,10.6l-8.3,14.3l8.3,14.3L79.5,79.5z"/>
	<polygon fill="#5CA931" points="87,87 68.9,97.4 68.9,109.2 94.5,94.5 109.2,68.9 97.4,68.9 	"/>
	<polygon fill="#343434" points="54.6,77.4 68.9,85.6 68.9,97.4 54.6,89.1 40.3,97.4 40.3,85.6 	"/>
</g>
<text transform="matrix(1 0 0 1 138.0645 62.2363)" fill="#1C1C1C" font-family="'OpenSans-Semibold'" font-size="49.6358">Codastic</text>
<text transform="matrix(1 0 0 1 167.4498 84.5215)" fill="#505050" font-family="'OpenSans-Light'" font-size="15.0867">The web. Our playground.</text>
</svg>
