<?xml version="1.0" encoding="utf-8"?>
<!-- Generator: Adobe Illustrator 18.0.0, SVG Export Plug-In . SVG Version: 6.00 Build 0)  -->
<!DOCTYPE svg PUBLIC "-//W3C//DTD SVG 1.1//EN" "http://www.w3.org/Graphics/SVG/1.1/DTD/svg11.dtd">
<svg version="1.1" id="Ebene_1" xmlns="http://www.w3.org/2000/svg" xmlns:xlink="http://www.w3.org/1999/xlink" x="0px" y="0px"
	 viewBox="0 0 85 85" enable-background="new 0 0 85 85" xml:space="preserve">
<polygon fill="#FFFFFF" points="51.4,51.4 42.5,56.5 33.6,51.4 28.5,42.5 33.6,33.6 42.5,28.5 51.4,33.6 56.5,42.5 "/>
<path fill="#FFFFFF" d="M42.5,76.8L56.7,85l17.9-10.3L85,56.7l-8.2-14.2L85,28.3L74.7,10.3L56.7,0L42.5,8.2L28.3,0L10.3,10.3L0,28.3
	l8.2,14.2L0,56.7l10.3,17.9L28.3,85L42.5,76.8z M67.3,67.3l-10.5,6.1l-14.2-8.2l-14.2,8.2l-10.5-6.1l-6.1-10.5l8.2-14.2l-8.2-14.2
	l6.1-10.5l10.5-6.1l14.2,8.2l14.2-8.2l10.5,6.1l6.1,10.5l-8.2,14.2l8.2,14.2L67.3,67.3z"/>
</svg>
