<?xml version="1.0" encoding="utf-8"?>
<!-- Generator: Adobe Illustrator 18.0.0, SVG Export Plug-In . SVG Version: 6.00 Build 0)  -->
<!DOCTYPE svg PUBLIC "-//W3C//DTD SVG 1.1//EN" "http://www.w3.org/Graphics/SVG/1.1/DTD/svg11.dtd">
<svg version="1.1" id="Ebene_1" xmlns="http://www.w3.org/2000/svg" xmlns:xlink="http://www.w3.org/1999/xlink" x="0px" y="0px"
	 viewBox="0 0 108.5 108.5" enable-background="new 0 0 108.5 108.5" xml:space="preserve">
<g>
	<path fill="#71B73A" d="M54.3,100.3l14.2,8.2l25.4-14.7l14.7-25.4l-8.2-14.2l8.2-14.2L93.9,14.7L68.5,0L54.3,8.2L40,0L14.7,14.7
		L0,40l8.2,14.2L0,68.5l14.7,25.4L40,108.5L54.3,100.3z M86.4,86.4L68.5,96.8l-14.2-8.2L40,96.8L22.1,86.4L11.8,68.5L20,54.3
		L11.8,40l10.3-17.9L40,11.8L54.3,20l14.2-8.2l17.9,10.3L96.8,40l-8.2,14.2l8.2,14.2L86.4,86.4z"/>
	<polygon fill="#71B73A" points="63.1,63.1 54.3,68.3 45.4,63.1 40.3,54.3 45.4,45.4 54.3,40.3 63.1,45.4 68.3,54.3 	"/>
	<path fill="#404042" d="M54.3,88.6l14.2,8.2l17.9-10.3l10.3-17.9l-8.2-14.2L96.8,40L86.4,22.1L68.5,11.8L54.3,20L40,11.8L22.1,22.1
		L11.8,40L20,54.3l-8.2,14.2l10.3,17.9L40,96.8L54.3,88.6z M79,79l-10.5,6.1l-14.2-8.2L40,85.1L29.5,79l-6.1-10.5l8.2-14.2L23.4,40
		l6.1-10.5L40,23.4l14.2,8.2l14.2-8.2L79,29.5L85.1,40l-8.2,14.2l8.2,14.2L79,79z"/>
	<polygon fill="#5CA931" points="86.4,86.4 68.5,96.8 68.5,108.5 93.9,93.9 108.5,68.5 96.8,68.5 	"/>
	<polygon fill="#6E6F71" points="54.3,76.9 68.5,85.1 68.5,96.8 54.3,88.6 40,96.8 40,85.1 	"/>
</g>
</svg>
